<mxfile host="Electron" modified="2023-09-14T08:34:57.442Z" agent="Mozilla/5.0 (X11; Linux x86_64) AppleWebKit/537.36 (KHTML, like Gecko) draw.io/21.6.8 Chrome/114.0.5735.289 Electron/25.5.0 Safari/537.36" etag="Uph-CqerJ79xQTqgQcHv" version="21.6.8" type="device">
  <diagram name="Page-1" id="UVktQqIOwX9brgbeaV1-">
    <mxGraphModel dx="779" dy="482" grid="1" gridSize="10" guides="1" tooltips="1" connect="1" arrows="1" fold="1" page="1" pageScale="1" pageWidth="827" pageHeight="1169" math="0" shadow="0">
      <root>
        <mxCell id="0" />
        <mxCell id="1" parent="0" />
        <mxCell id="JdzlZuZBimPB7fWGRYdq-3" value="Disk" style="shape=datastore;whiteSpace=wrap;html=1;" vertex="1" parent="1">
          <mxGeometry x="305" y="670" width="210" height="130" as="geometry" />
        </mxCell>
        <mxCell id="JdzlZuZBimPB7fWGRYdq-10" value="" style="endArrow=classic;startArrow=classic;html=1;rounded=0;exitX=0.5;exitY=0;exitDx=0;exitDy=0;entryX=0.5;entryY=1;entryDx=0;entryDy=0;" edge="1" parent="1" source="JdzlZuZBimPB7fWGRYdq-3" target="JdzlZuZBimPB7fWGRYdq-16">
          <mxGeometry width="50" height="50" relative="1" as="geometry">
            <mxPoint x="515" y="530" as="sourcePoint" />
            <mxPoint x="565" y="680" as="targetPoint" />
          </mxGeometry>
        </mxCell>
        <mxCell id="JdzlZuZBimPB7fWGRYdq-11" value="Read/Write" style="edgeLabel;html=1;align=center;verticalAlign=middle;resizable=0;points=[];" vertex="1" connectable="0" parent="JdzlZuZBimPB7fWGRYdq-10">
          <mxGeometry x="0.3071" y="1" relative="1" as="geometry">
            <mxPoint x="1" y="12" as="offset" />
          </mxGeometry>
        </mxCell>
        <mxCell id="JdzlZuZBimPB7fWGRYdq-12" value="System Application" style="rounded=1;whiteSpace=wrap;html=1;" vertex="1" parent="1">
          <mxGeometry x="260" y="100" width="300" height="110" as="geometry" />
        </mxCell>
        <mxCell id="JdzlZuZBimPB7fWGRYdq-14" value="Pool" style="swimlane;childLayout=stackLayout;resizeParent=1;resizeParentMax=0;horizontal=1;startSize=20;horizontalStack=0;html=1;" vertex="1" parent="1">
          <mxGeometry x="275" y="300" width="270" height="260" as="geometry" />
        </mxCell>
        <mxCell id="JdzlZuZBimPB7fWGRYdq-15" value="Lane 1" style="swimlane;startSize=20;horizontal=0;html=1;" vertex="1" parent="JdzlZuZBimPB7fWGRYdq-14">
          <mxGeometry y="20" width="270" height="120" as="geometry" />
        </mxCell>
        <mxCell id="JdzlZuZBimPB7fWGRYdq-16" value="Lane 2" style="swimlane;startSize=20;horizontal=0;html=1;" vertex="1" parent="JdzlZuZBimPB7fWGRYdq-14">
          <mxGeometry y="140" width="270" height="120" as="geometry" />
        </mxCell>
        <mxCell id="JdzlZuZBimPB7fWGRYdq-28" value="" style="shape=cylinder3;whiteSpace=wrap;html=1;boundedLbl=1;backgroundOutline=1;size=15;" vertex="1" parent="JdzlZuZBimPB7fWGRYdq-16">
          <mxGeometry x="30" y="20" width="90" height="80" as="geometry" />
        </mxCell>
        <mxCell id="JdzlZuZBimPB7fWGRYdq-26" value="Read page &lt;br&gt;from disk" style="text;html=1;align=center;verticalAlign=middle;resizable=0;points=[];autosize=1;strokeColor=none;fillColor=none;" vertex="1" parent="JdzlZuZBimPB7fWGRYdq-16">
          <mxGeometry x="35" y="50" width="80" height="40" as="geometry" />
        </mxCell>
        <mxCell id="JdzlZuZBimPB7fWGRYdq-29" value="" style="shape=cylinder3;whiteSpace=wrap;html=1;boundedLbl=1;backgroundOutline=1;size=15;" vertex="1" parent="JdzlZuZBimPB7fWGRYdq-16">
          <mxGeometry x="165" y="20" width="90" height="80" as="geometry" />
        </mxCell>
        <mxCell id="JdzlZuZBimPB7fWGRYdq-27" value="Write page &lt;br&gt;to disk" style="text;html=1;align=center;verticalAlign=middle;resizable=0;points=[];autosize=1;strokeColor=none;fillColor=none;" vertex="1" parent="JdzlZuZBimPB7fWGRYdq-16">
          <mxGeometry x="170" y="50" width="80" height="40" as="geometry" />
        </mxCell>
        <mxCell id="JdzlZuZBimPB7fWGRYdq-20" value="" style="endArrow=classic;startArrow=classic;html=1;rounded=0;exitX=0.5;exitY=0;exitDx=0;exitDy=0;entryX=0.5;entryY=1;entryDx=0;entryDy=0;" edge="1" parent="1" source="JdzlZuZBimPB7fWGRYdq-14" target="JdzlZuZBimPB7fWGRYdq-12">
          <mxGeometry width="50" height="50" relative="1" as="geometry">
            <mxPoint x="735" y="330" as="sourcePoint" />
            <mxPoint x="735" y="220" as="targetPoint" />
          </mxGeometry>
        </mxCell>
        <mxCell id="JdzlZuZBimPB7fWGRYdq-21" value="Suppy page" style="edgeLabel;html=1;align=center;verticalAlign=middle;resizable=0;points=[];" vertex="1" connectable="0" parent="JdzlZuZBimPB7fWGRYdq-20">
          <mxGeometry x="0.3071" y="1" relative="1" as="geometry">
            <mxPoint x="1" y="12" as="offset" />
          </mxGeometry>
        </mxCell>
      </root>
    </mxGraphModel>
  </diagram>
</mxfile>
